<svg width="24" height="24" viewBox="0 0 24 24" fill="none" xmlns="http://www.w3.org/2000/svg">
<path d="M4.56839 13.319C5.76946 14.5201 7.22791 15.1206 8.94373 15.1206C10.6595 15.1206 12.118 14.5201 13.3191 13.319C14.5201 12.118 15.1207 10.6595 15.1207 8.9437C15.1207 7.22788 14.5201 5.76944 13.3191 4.56836C12.118 3.36729 10.6595 2.76676 8.94373 2.76676C7.22791 2.76676 5.76946 3.36729 4.56839 4.56836C3.36732 5.76944 2.76678 7.22788 2.76678 8.9437C2.76678 10.6595 3.36732 12.118 4.56839 13.319ZM17.1797 15.1206L24 21.941L21.941 24L15.1207 17.1796V16.0858L14.7346 15.6997C13.1046 17.1153 11.1743 17.8231 8.94373 17.8231C6.45579 17.8231 4.33247 16.9651 2.57375 15.2493C0.857934 13.5335 2.55268e-05 11.4316 2.55268e-05 8.9437C2.55268e-05 6.45576 0.857934 4.35389 2.57375 2.63807C4.33247 0.879357 6.45579 0 8.94373 0C11.4317 0 13.5335 0.879357 15.2494 2.63807C16.9652 4.35389 17.8231 6.45576 17.8231 8.9437C17.8231 9.8445 17.6086 10.874 17.1797 12.0322C16.7507 13.1475 16.2574 14.0483 15.6998 14.7346L16.0858 15.1206H17.1797Z" fill="#191823"/>
</svg>
